<!--?xml version="1.0" standalone="no"?-->
              <svg id="sw-js-blob-svg" viewBox="0 0 100 100" xmlns="http://www.w3.org/2000/svg" version="1.1">
                    <defs> 
                        <linearGradient id="sw-gradient" x1="0" x2="1" y1="1" y2="0">
                            <stop id="stop1" stop-color="rgba(245, 106, 106, 1)" offset="0%"></stop>
                            <stop id="stop2" stop-color="rgba(214.089, 152.044, 49.632, 1)" offset="100%"></stop>
                        </linearGradient>
                    </defs>
                <path fill="rgba(245, 106, 106, 1)" d="M18.1,-28.3C24.5,-27.6,31.5,-24.9,35.5,-19.9C39.4,-14.8,40.4,-7.4,37.6,-1.6C34.9,4.3,28.6,8.6,24.5,13.3C20.3,18.1,18.4,23.3,14.7,27.9C11,32.4,5.5,36.3,-0.6,37.3C-6.6,38.3,-13.3,36.4,-17.4,32.1C-21.6,27.8,-23.2,21.1,-28.3,15.3C-33.3,9.6,-41.6,4.8,-43.5,-1.1C-45.3,-6.9,-40.6,-13.8,-36.5,-21C-32.3,-28.2,-28.6,-35.6,-22.6,-36.6C-16.6,-37.5,-8.3,-32,-1.2,-29.9C5.8,-27.8,11.6,-29,18.1,-28.3Z" width="100%" height="100%" transform="translate(50 50)" stroke-width="0" style="transition: all 0.3s ease 0s;" stroke="rgba(232.303, 97.135, 97.135, 1)"></path>
              </svg>